<svg xmlns="http://www.w3.org/2000/svg" viewBox="0 0 81.32 79.42"><title>headset</title><g id="Layer_2" data-name="Layer 2"><g id="Layer_1-2" data-name="Layer 1"><path d="M40.66,0A29.9,29.9,0,0,0,10.8,29.7h0a11,11,0,0,0,0,21.91h0v13.5A10.33,10.33,0,0,0,21.12,75.44H34.77a6.35,6.35,0,1,0,7.15-8.61A23.54,23.54,0,0,0,62.67,51.62h7.85a11,11,0,0,0,0-21.91h0A29.9,29.9,0,0,0,40.66,0Zm0,4.76A25.12,25.12,0,0,1,65.75,29.7H63.63A19.9,19.9,0,0,0,44.31,14.45H37A19.91,19.91,0,0,0,17.69,29.7H15.57A25.13,25.13,0,0,1,40.66,4.76ZM37,19.22h7.3A15.11,15.11,0,0,1,59.4,34.31v9a18.74,18.74,0,0,1-37.48,0v-9A15.11,15.11,0,0,1,37,19.22ZM15.57,34.47h1.58V46.86H15.57Zm48.6,0h1.59V46.86H64.17V34.47Zm-53.37,0V46.85a6.19,6.19,0,0,1,0-12.38Zm59.72,0a6.19,6.19,0,0,1,0,12.38ZM48.63,48.63a11.25,11.25,0,0,1-15.94,0L29.32,52A16,16,0,0,0,52,52Zm-33.06,3h3.08A23.54,23.54,0,0,0,39.41,66.83a6.4,6.4,0,0,0-4.64,3.85H21.12a5.56,5.56,0,0,1-5.55-5.56ZM40.66,71.47a1.59,1.59,0,0,1,0,3.18,1.56,1.56,0,0,1-1.11-.46V71.93A1.6,1.6,0,0,1,40.66,71.47Z"/></g></g></svg>