<svg xmlns="http://www.w3.org/2000/svg" viewBox="0 0 81.16 81.16"><title>media</title><g id="Layer_2" data-name="Layer 2"><g id="Layer_1-2" data-name="Layer 1"><path d="M18.94,50.05a1.35,1.35,0,0,0-1.35,1.35v6.77a1.35,1.35,0,1,0,2.7,0V51.4A1.36,1.36,0,0,0,18.94,50.05Z"/><path d="M79.81,14.88H75.75V1.35A1.35,1.35,0,0,0,74.4,0H66.28a1.36,1.36,0,0,0-1.35,1.35V14.88H1.35A1.36,1.36,0,0,0,0,16.23v48.7a1.35,1.35,0,0,0,1.35,1.35H8.12v4.06a10.82,10.82,0,0,0,21.64,0V66.28H79.81a1.34,1.34,0,0,0,1.35-1.35V16.23A1.35,1.35,0,0,0,79.81,14.88ZM73.05,35.17H67.64V8.12h5.41Zm-.7,2.71-2,4.68-2-4.68ZM67.64,2.71h5.41v2.7H67.64ZM7.56,17.59,2.71,22.44V17.59ZM9.47,19.5v4.85H4.62ZM27.05,70.34a8.12,8.12,0,1,1-16.23,0V54.11a8.12,8.12,0,1,1,16.23,0Zm51.41-6.76H29.76V54.11a10.82,10.82,0,0,0-21.64,0v9.47H2.71V27.05h8.11a1.34,1.34,0,0,0,1.35-1.35V17.59H64.93V36.52s0,0,0,.06A1.71,1.71,0,0,0,65,37v0h0l4.06,9.47a1.35,1.35,0,0,0,1.78.71,1.33,1.33,0,0,0,.71-.71l4.06-9.47h0v0a1.71,1.71,0,0,0,.09-.45s0,0,0-.06V17.59h2.7Z"/><path d="M74.4,58.17H71.69a1.35,1.35,0,0,0,0,2.7H74.4a1.35,1.35,0,0,0,0-2.7Z"/><path d="M66.28,58.17h-2.7a1.35,1.35,0,1,0,0,2.7h2.7a1.35,1.35,0,1,0,0-2.7Z"/><path d="M55.16,24.85a1.36,1.36,0,0,0-1.91-.2l-14,11.44L26.61,24.7a1.36,1.36,0,0,0-1.68-.11L7.35,36.76A1.35,1.35,0,1,0,8.83,39l.06,0,16.7-11.57L38.32,38.88a1.35,1.35,0,0,0,1.76,0L55,26.75a1.35,1.35,0,0,0,.2-1.9Z"/><path d="M51.2,42.57a1.4,1.4,0,0,0-2-.34,1.37,1.37,0,0,0-.34.34L42.13,53.39a1.37,1.37,0,0,0,.43,1.87,1.43,1.43,0,0,0,.73.2H56.81a1.35,1.35,0,0,0,1.36-1.35,1.32,1.32,0,0,0-.21-.72ZM45.72,52.76l4.33-6.92,4.33,6.92Z"/></g></g></svg>