<svg xmlns="http://www.w3.org/2000/svg" viewBox="0 0 44.24 44.22"><defs><style>.cls-1{fill:#fff;}</style></defs><title>skratch</title><g id="Layer_2" data-name="Layer 2"><g id="Layer_1-2" data-name="Layer 1"><path class="cls-1" d="M21.52,8.88,27.36,3a10.24,10.24,0,0,1,6.27-3,9.87,9.87,0,0,1,8.8,4.08A9.57,9.57,0,0,1,44.14,8.4a9.89,9.89,0,0,1-2.78,8.41l-9.87,9.87a9.83,9.83,0,0,1-13.94,0,5.57,5.57,0,0,1-.75-.86,1.48,1.48,0,0,1,.16-2h0a1.57,1.57,0,0,1,2.3.1,4.89,4.89,0,0,0,.54.59,6.65,6.65,0,0,0,4.77,2,6.71,6.71,0,0,0,4.77-2l9.76-9.76a7.14,7.14,0,0,0,2.1-4.29,6.8,6.8,0,0,0-3.65-6.59,7.55,7.55,0,0,0-1-.43,6.82,6.82,0,0,0-6.86,1.66L25.27,9.52l-1.56,1.56a1.58,1.58,0,0,1-2.19,0h0A1.59,1.59,0,0,1,21.52,8.88Zm1.12,26.54a1.59,1.59,0,0,0,0-2.2h0a1.59,1.59,0,0,0-2.2,0l-5.9,5.9a6.72,6.72,0,0,1-6.81,1.66,6.31,6.31,0,0,1-1-.37A6.76,6.76,0,0,1,5.05,29.63L15,19.71a6.75,6.75,0,0,1,9.55,0c.21.21.43.48.64.7a1.54,1.54,0,0,0,2.31.21l.05-.05a1.54,1.54,0,0,0,.16-2,9.34,9.34,0,0,0-.91-1.07,9.65,9.65,0,0,0-7.56-2.84,10.22,10.22,0,0,0-6.49,3L2.86,27.43a9.87,9.87,0,0,0,0,13.89,9.83,9.83,0,0,0,13.94,0Z"/></g></g></svg>