<svg xmlns="http://www.w3.org/2000/svg" viewBox="0 0 66.26 58.21"><title>slash</title><g id="Layer_2" data-name="Layer 2"><g id="Layer_1-2" data-name="Layer 1"><path d="M54.89,16.75a2.45,2.45,0,1,0-3.46,3.47l8.9,8.9L51.43,38a2.39,2.39,0,0,0,0,3.46,2.52,2.52,0,0,0,1.73.74,2.55,2.55,0,0,0,1.73-.74L65.52,30.85a2.39,2.39,0,0,0,0-3.46Z"/><path d="M42.2.11a2.42,2.42,0,0,0-3.05,1.73L24,55.08a2.43,2.43,0,0,0,1.73,3.05,1.87,1.87,0,0,0,.66.08,2.55,2.55,0,0,0,2.39-1.82L43.84,3.16A2.38,2.38,0,0,0,42.2.11Z"/><path d="M14.83,16.75a2.4,2.4,0,0,0-3.46,0L.74,27.39a2.39,2.39,0,0,0,0,3.46L11.37,41.48a2.55,2.55,0,0,0,1.73.74,2.52,2.52,0,0,0,1.73-.74,2.39,2.39,0,0,0,0-3.46l-8.9-8.9,8.9-8.9A2.4,2.4,0,0,0,14.83,16.75Z"/></g></g></svg>